<svg xmlns="http://www.w3.org/2000/svg" width="166" height="24">
  <g fill="none">
    <g fill="#F43F45">
      <path d="M15.356 10.842a.06.06 0 0 1-.04-.014.06.06 0 0 1-.02-.04c-.596-4.39-4.25-7.659-8.568-7.663H.06A.065.065 0 0 1 0 3.059v-.957a1.54 1.54 0 0 1 .432-1.084A1.46 1.46 0 0 1 1.488.574h5.24c5.691-.016 10.473 4.388 11.076 10.198a.06.06 0 0 1 0 .05.07.07 0 0 1-.048.024z"/>
      <path d="M1.488 23.463a1.47 1.47 0 0 1-1.054-.449A1.55 1.55 0 0 1 0 21.931v-6.879q0-.028.02-.045a.05.05 0 0 1 .04 0H6.8a2.8 2.8 0 0 0 2.039-.847 2.96 2.96 0 0 0 .841-2.086c-.001-1.648-1.276-2.998-2.88-3.051H2.48v1.84a.06.06 0 0 1-.06.061H.06a.06.06 0 0 1-.06-.061V7.988c.002-.843.667-1.526 1.488-1.528H6.8c2.982 0 5.4 2.482 5.4 5.544 0 3.063-2.418 5.545-5.4 5.545H2.48v3.372h4.26c3.68-.014 6.952-2.406 8.168-5.972a.06.06 0 0 1 .056-.04h2.468q.031 0 .052.024a.07.07 0 0 1 0 .053c-1.324 5.006-5.748 8.482-10.8 8.486z"/>
    </g>
    <path fill="#0C142A" d="M35.16 6.198c3.286 0 5.949 2.615 5.949 5.9s-2.647 5.9-5.949 5.9h-3.7a.895.895 0 0 1-.908-.892V7.09a.88.88 0 0 1 .893-.893zm0 10.047c2.345 0 4.179-1.834 4.195-4.147 0-2.312-1.866-4.146-4.195-4.146h-2.854v8.293zm20.44 1.754h-1.962l-3.7-8.74L46.19 18h-1.96l4.88-11.419a.9.9 0 0 1 .845-.558.86.86 0 0 1 .813.558zM68.14 6.198v1.754h-4.146v10.047H62.24V7.952h-4.146V6.198zm13.866 11.8h-1.962l-3.7-8.738-3.747 8.739h-1.962l4.88-11.419a.9.9 0 0 1 .845-.558.86.86 0 0 1 .814.558zm9.631-11.8c2.28 0 4.13 1.897 4.13 4.178 0 2.296-1.85 4.082-4.13 4.082h-3.476v3.54h-1.755V7.124a.94.94 0 0 1 .941-.925zm0 6.506c1.324 0 2.376-1.02 2.376-2.328 0-1.324-1.084-2.424-2.376-2.424h-3.476v4.752zM109.647 18h-1.962l-3.7-8.74-3.747 8.74h-1.962l4.88-11.419a.9.9 0 0 1 .845-.558.86.86 0 0 1 .814.558zm9.294.175c-3.349 0-6.06-2.759-6.06-6.14a6.027 6.027 0 0 1 6.06-6.06c1.834 0 3.493.846 4.609 2.17l-1.324 1.147c-.797-.972-1.961-1.578-3.285-1.578a4.29 4.29 0 0 0-4.306 4.321c0 2.408 1.93 4.402 4.306 4.402 1.451 0 2.727-.638 3.509-1.77l1.371 1.068c-1.084 1.531-2.87 2.44-4.88 2.44m9.345-.175V6.198h1.755v11.8zm7.448 0-5.183-5.343a.95.95 0 0 1-.207-.59.9.9 0 0 1 .191-.558l5.183-5.31h2.344l-5.661 5.852L138.158 18zm15.963-10.047h-7.32v3.27h6.842v1.753h-6.842v3.27h7.32V18h-8.133c-.51 0-.94-.43-.94-.941V7.123c0-.51.43-.925.94-.925h8.133zm13.861-1.754v1.754h-4.146V18h-1.754V7.952h-4.147V6.198z"/>
  </g>
</svg>
