<svg xmlns="http://www.w3.org/2000/svg" xml:space="preserve" style="enable-background:new 0 0 528 72" viewBox="0 0 528 72">
	<path d="m112.8 22.7-.9 1.1c-.3.2-.7.3-1.2.3a3 3 0 0 1-1.5-.4l-1.8-1-2.2-1c-.8-.3-1.8-.4-2.9-.4-1.9 0-3.2.4-4.2 1.2-.9.8-1.4 1.9-1.4 3.2 0 .9.3 1.6.8 2.1.6.6 1.3 1.1 2.2 1.5.9.4 1.9.8 3.1 1.1l3.5 1.1c1.2.4 2.4.9 3.5 1.5 1.2.6 2.2 1.3 3.1 2.2s1.6 2 2.2 3.2a14.2 14.2 0 0 1-.2 10.1 13 13 0 0 1-7.8 7.5 18.8 18.8 0 0 1-10.6.7 26.4 26.4 0 0 1-7.6-3 17 17 0 0 1-3-2.3l2.9-4.6c.2-.4.5-.6.9-.9.4-.2.8-.3 1.3-.3.6 0 1.2.2 1.8.6l2 1.2a12.6 12.6 0 0 0 6.1 1.8c1.8 0 3.2-.4 4.2-1.2 1-.8 1.5-2 1.5-3.8 0-1-.3-1.8-.8-2.4a7.3 7.3 0 0 0-2.2-1.6l-3-1.1-3.5-1-3.5-1.4a10.5 10.5 0 0 1-5.2-5.6c-.5-1.4-.8-3-.8-5 0-1.6.3-3.2 1-4.7s1.6-2.9 2.9-4.1a15 15 0 0 1 10.8-4 23.4 23.4 0 0 1 7.3 1.2l3.1 1.4c1 .6 1.8 1.2 2.6 1.9l-2.5 4.9zm43.1 34h-10v-18h-17.4v18h-9.9V14h9.9v17.9h17.4V14h10zm46.9-21.3a22 22 0 0 1-6.1 15.5c-1.9 2-4.3 3.5-7 4.6a24.6 24.6 0 0 1-18.2 0 21.3 21.3 0 0 1-7-4.6 22.3 22.3 0 0 1-6.1-15.5 22 22 0 0 1 6.1-15.5c1.9-2 4.3-3.5 7-4.6 2.7-1.1 5.8-1.7 9.1-1.7s6.4.6 9.1 1.7c2.7 1.1 5.1 2.7 7 4.6a22 22 0 0 1 6.1 15.5zm-10.1 0c0-2.1-.3-4-.8-5.7a12 12 0 0 0-2.4-4.3 9.4 9.4 0 0 0-3.8-2.7c-1.5-.6-3.2-.9-5.1-.9-1.9 0-3.6.3-5.1.9-1.5.6-2.8 1.5-3.8 2.7s-1.8 2.6-2.4 4.3a20.1 20.1 0 0 0 0 11.4 12 12 0 0 0 2.4 4.3c1 1.2 2.3 2.1 3.8 2.7 1.5.6 3.2.9 5.1.9 1.9 0 3.6-.3 5.1-.9 1.5-.6 2.7-1.5 3.8-2.7 1-1.2 1.8-2.6 2.4-4.3.5-1.7.8-3.6.8-5.7zm43.4 10.3.7.1c.2.1.5.2.7.5l3.9 4.2a16 16 0 0 1-6.5 5 23.6 23.6 0 0 1-9.2 1.7c-3.2 0-6.2-.6-8.7-1.7A19.2 19.2 0 0 1 206.4 44c-1-2.7-1.4-5.6-1.4-8.7 0-3.2.6-6.1 1.6-8.8 1.1-2.7 2.6-5 4.6-6.9 2-1.9 4.3-3.4 7.1-4.5a24.2 24.2 0 0 1 21 1.8c1 .7 2 1.5 2.8 2.3l-3.3 4.5-.8.8c-.3.2-.7.3-1.2.3l-1-.2-1-.6-1.2-.7a25.2 25.2 0 0 0-3.5-1.3l-2.7-.2a13 13 0 0 0-4.9.9c-1.5.6-2.8 1.6-3.8 2.7a12.2 12.2 0 0 0-2.5 4.3 17 17 0 0 0-.9 5.7c0 2.2.3 4.1.9 5.8.6 1.7 1.4 3.1 2.4 4.3 1 1.2 2.2 2 3.6 2.7 1.4.6 2.8.9 4.4.9l2.5-.1c.8-.1 1.4-.2 2.1-.5l1.8-.8a7 7 0 0 0 1.7-1.3l.8-.5c0-.2.3-.2.6-.2zm18.5-14.4h1.6c1.5 0 2.5-.5 3.2-1.4l9.6-14c.5-.8 1.1-1.3 1.8-1.6.7-.3 1.5-.4 2.5-.4h8.6l-12.7 17.3-1.4 1.6c-.5.4-1 .8-1.5 1l2 1.1a8 8 0 0 1 1.7 1.9l13 19.9h-8.9l-1.4-.1c-.4-.1-.8-.2-1-.4l-.8-.6-.6-.8-9.7-14.8c-.4-.6-.8-.9-1.3-1.2-.5-.2-1.3-.3-2.2-.3h-2.4v18.2h-9.9V14h9.9v17.3zm73.5 25.4h-5.7V37.6h-22.6v19.1h-5.7v-42h5.7v18.7h22.6V14.7h5.7zm45.2-21c0 3.1-.5 6-1.5 8.7-1 2.6-2.4 4.9-4.2 6.8-1.8 1.9-4 3.4-6.5 4.4a23.4 23.4 0 0 1-16.9 0c-2.5-1-4.7-2.5-6.5-4.4a20.5 20.5 0 0 1-4.2-6.8 24 24 0 0 1-1.5-8.7c0-3.2.5-6 1.5-8.7 1-2.6 2.4-4.9 4.2-6.8a20.6 20.6 0 0 1 14.9-6c3.1 0 5.9.5 8.5 1.6 2.5 1.1 4.7 2.5 6.5 4.4 1.8 1.9 3.2 4.2 4.2 6.8 1 2.7 1.5 5.6 1.5 8.7zm-5.9 0c0-2.6-.4-4.9-1.1-7a14 14 0 0 0-7.7-8.5c-1.8-.8-3.9-1.1-6.2-1.1a17 17 0 0 0-6.1 1.1 14 14 0 0 0-7.7 8.5 23.9 23.9 0 0 0 0 13.9c.7 2 1.7 3.8 3 5.2 1.3 1.4 2.9 2.5 4.7 3.2a17.5 17.5 0 0 0 12.3 0 14 14 0 0 0 4.7-3.2 18.5 18.5 0 0 0 4.1-12.1zm32-14.4-.6.7c-.2.2-.5.2-.8.2-.3 0-.7-.2-1.2-.5l-1.7-1.1a11.6 11.6 0 0 0-9.2-1.1 6.2 6.2 0 0 0-4 3.5c-.3.8-.5 1.7-.5 2.6 0 1.2.3 2.1.9 2.9.6.8 1.3 1.4 2.3 2 .9.5 2 1 3.2 1.4l3.7 1.2a23.9 23.9 0 0 1 6.9 3.5 10 10 0 0 1 2.3 3c.6 1.2.9 2.7.9 4.4a15 15 0 0 1-.9 5.2 11.7 11.7 0 0 1-7.1 7 16 16 0 0 1-6 1 17.8 17.8 0 0 1-13.1-5.5l1.6-2.7.6-.5.7-.2c.4 0 .9.2 1.4.7l2 1.5c.8.5 1.8 1 2.9 1.4a13 13 0 0 0 7.7.2 7.2 7.2 0 0 0 4.4-4c.4-.9.6-2 .6-3.1a5 5 0 0 0-.9-3.1 6.4 6.4 0 0 0-2.3-2c-.9-.5-2-1-3.2-1.4l-3.7-1.2-3.7-1.4a9.8 9.8 0 0 1-5.5-5.2 11 11 0 0 1-.9-4.7 11.5 11.5 0 0 1 7.5-10.6 18.3 18.3 0 0 1 12 .1c1.9.7 3.6 1.8 5.1 3.2l-1.4 2.6zm37-6.6v4.8h-13.6v37.2h-5.7V19.5h-13.6v-4.8zm4.9 0h5.7v42h-5.7zm14.7 0 1.1.2.8.8 24.3 31.7-.1-1.5V14.7h5v42h-2.9l-1.1-.2-.9-.8-24.3-31.6.1 1.4v31.2h-5v-42h3zm56 37.9 3.1-.2 2.7-.5a22.5 22.5 0 0 0 4.6-1.8v-9.3h-6.5c-.4 0-.7-.1-.9-.3-.2-.2-.3-.5-.3-.8v-3.2h12.9v16.1c-1.1.8-2.2 1.4-3.3 2-1.1.6-2.4 1-3.7 1.4s-2.7.7-4.2.8c-1.5.2-3.1.3-4.8.3a20.6 20.6 0 0 1-15-6 20.7 20.7 0 0 1-4.3-6.8 24 24 0 0 1-1.5-8.7c0-3.2.5-6.1 1.5-8.8a18.4 18.4 0 0 1 11.1-11.2 24.8 24.8 0 0 1 13.5-1.1 18 18 0 0 1 10.3 4.9l-1.6 2.6c-.3.5-.8.8-1.3.8l-1-.3-1.6-1a9 9 0 0 0-2.2-1.1 17.6 17.6 0 0 0-7.3-1.3 15.1 15.1 0 0 0-11.3 4.5 13.6 13.6 0 0 0-3.1 5.2 22 22 0 0 0 0 14c.8 2.1 1.8 3.8 3.2 5.3 1.4 1.5 3 2.6 4.9 3.3 1.7.8 3.8 1.2 6.1 1.2z"/><path d="M7.4 7.7c5.9-6 16.8-7 28.5-7.1 11.6.1 22.6 1.2 28.5 7.1 6 5.9 7 16.8 7.1 28.5-.1 11.6-1.2 22.6-7.1 28.5-5.9 5.9-16.8 7-28.5 7.1-11.6-.1-22.6-1.2-28.5-7.1-6-5.9-7-16.8-7.1-28.5.1-11.7 1.1-22.7 7.1-28.5z" style="fill-rule:evenodd;clip-rule:evenodd;fill:#fff"/>
	<path d="M7.4 64.6C2.2 59.4.7 50.3.4 40.2h14.9l3.1-7.4H.4l.1-3.4h19.4L23 22H1.2l.6-3.4h22.5l3.2-7.4H4.7c.8-1.3 1.7-2.5 2.7-3.6 5.9-6 16.8-7 28.5-7.1 11.6.1 22.6 1.2 28.5 7.1 4.9 4.8 6.5 13.1 6.9 22.3H58.2L55 37.4h16.4l-.1 3.4H53.6l-3.1 7.4h20.3l-.5 3.4H49L45.9 59h22.2c-.9 2.2-2.2 4.1-3.8 5.6-5.9 6-16.8 7-28.5 7.1-11.6-.1-22.5-1.1-28.4-7.1zm30.2-1.5 16.3-37.6c.7-1.6-1.5-3.1-3.3-2.3l-16.7 7.9L39 9.6c.5-2.2-3.5-3.2-4.4-1L19.4 45c-.7 1.7 1.6 3.1 3.4 2.2l16-8.2-5.5 23c-.5 2.3 3.4 3.2 4.3 1.1z" style="fill-rule:evenodd;clip-rule:evenodd;fill:#bf1212"/>
</svg>
